HIERARCHY
ROOT Hips
{
  OFFSET 0.0000 0.0000 0.0000
  CHANNELS 6 Xposition Yposition Zposition Zrotation Xrotation Yrotation
  JOINT LeftHip
  {
    OFFSET 5.5118 0.0000 -0.0000
    CHANNELS 3 Zrotation Xrotation Yrotation
    JOINT LeftKnee
    {
      OFFSET 0.0000 -17.7165 0.0000
      CHANNELS 3 Zrotation Xrotation Yrotation
      JOINT LeftAnkle
      {
        OFFSET 0.0000 -16.1417 0.0000
        CHANNELS 3 Zrotation Xrotation Yrotation
        End Site
        {
            OFFSET -0.0000 -4.7244 -3.9370
        }
      }
    }
  }
  JOINT RightHip
  {
    OFFSET -5.5118 0.0000 -0.0000
    CHANNELS 3 Zrotation Xrotation Yrotation
    JOINT RightKnee
    {
      OFFSET 0.0000 -17.7165 0.0000
      CHANNELS 3 Zrotation Xrotation Yrotation
      JOINT RightAnkle
      {
        OFFSET 0.0000 -16.1417 -0.0000
        CHANNELS 3 Zrotation Xrotation Yrotation
        End Site
        {
            OFFSET -0.0000 -4.7244 -3.9370
        }
      }
    }
  }
  JOINT Chest
  {
    OFFSET 0.0000 2.9528 -1.9685
    CHANNELS 3 Zrotation Xrotation Yrotation
    JOINT LeftCollar
    {
      OFFSET 0.0000 16.9291 1.9685
      CHANNELS 3 Zrotation Xrotation Yrotation
      JOINT LeftShoulder
      {
        OFFSET 7.8740 0.0000 0.0000
        CHANNELS 3 Zrotation Xrotation Yrotation
        JOINT LeftElbow
        {
          OFFSET -0.0000 -11.8110 0.0000
          CHANNELS 3 Zrotation Xrotation Yrotation
          JOINT LeftWrist
          {
            OFFSET 0.0000 -10.2362 -0.0000
            CHANNELS 3 Zrotation Xrotation Yrotation
            End Site
            {
                OFFSET -0.0000 -6.6929 0.0000
            }
          }
        }
      }
    }
    JOINT RightCollar
    {
      OFFSET 0.0000 16.9291 1.9685
      CHANNELS 3 Zrotation Xrotation Yrotation
      JOINT RightShoulder
      {
        OFFSET -7.8740 -0.0000 0.0000
        CHANNELS 3 Zrotation Xrotation Yrotation
        JOINT RightElbow
        {
          OFFSET 0.0000 -11.8110 0.0000
          CHANNELS 3 Zrotation Xrotation Yrotation
          JOINT RightWrist
          {
            OFFSET 0.0000 -10.2362 0.0000
            CHANNELS 3 Zrotation Xrotation Yrotation
            End Site
            {
                OFFSET 0.0000 -6.6929 0.0000
            }
          }
        }
      }
    }
    JOINT Neck
    {
      OFFSET 0.0000 16.9291 1.9685
      CHANNELS 3 Zrotation Xrotation Yrotation
      JOINT Head
      {
        OFFSET 0.0000 4.7244 0.0000
        CHANNELS 3 Zrotation Xrotation Yrotation
        End Site
        {
            OFFSET 0.0000 7.8740 0.0000
        }
      }
    }
  }
}
MOTION
Frames:	22
Frame Time:	0.033333
2.6284 24.2703 42.4589 -2.29 6.13 -15.91 18.10 -16.24 6.63 -179.00 85.61 180.00 16.63 -23.50 18.79 -6.32 -27.90 -9.50 179.00 80.18 180.00 0.10 -18.28 -14.69 1.33 19.02 1.26 -6.95 1.45 -0.03 20.15 5.33 -24.97 78.70 -80.44 89.66 -45.20 9.94 29.07 9.05 1.45 -0.03 -24.60 1.77 34.26 -96.83 -79.97 -107.53 34.62 5.90 -57.10 -2.38 15.62 0.50 11.76 -13.65 -3.85 
3.1820 23.5709 42.6886 -2.21 5.87 -14.10 18.25 -15.99 5.79 -179.00 82.96 180.00 16.29 -23.13 18.79 -7.60 -27.89 -9.53 179.00 78.01 180.00 0.62 -17.50 -14.62 2.50 18.80 1.37 -6.95 1.45 -0.03 19.93 5.33 -24.95 77.44 -80.44 88.41 -45.62 9.69 29.11 9.05 1.45 -0.03 -24.60 1.77 34.26 -96.71 -79.98 -107.41 34.66 5.85 -56.77 -2.16 15.78 0.45 11.62 -12.86 -3.43 
3.9559 22.7012 42.9052 -2.39 5.76 -11.83 18.80 -14.87 4.49 -179.00 79.94 180.00 15.83 -22.88 19.29 -8.32 -27.88 -8.66 179.00 75.47 180.00 1.52 -17.46 -14.00 3.44 18.13 1.62 -7.44 1.45 -0.01 19.93 5.33 -24.95 77.10 -80.44 88.08 -46.00 8.87 29.13 8.56 1.45 -0.01 -24.82 2.11 34.09 -99.74 -79.80 -110.39 34.89 5.94 -56.47 -1.89 15.96 0.39 11.91 -11.92 -2.81 
4.5121 21.8735 43.1908 -2.48 5.59 -9.64 19.67 -14.41 3.35 -179.00 77.20 180.00 15.04 -21.19 19.83 -8.31 -27.25 -7.22 179.00 73.37 180.00 3.01 -17.62 -12.84 4.77 17.57 1.98 -7.43 1.45 -0.01 19.71 5.33 -24.93 75.81 -80.43 86.81 -46.14 8.60 29.13 8.57 1.45 -0.01 -25.25 2.34 33.55 -101.15 -79.70 -111.78 34.92 5.91 -56.23 -1.76 16.04 0.37 11.87 -11.30 -2.82 
4.8081 21.4415 42.9532 -2.44 5.38 -8.04 20.10 -13.77 2.33 -179.00 74.70 180.00 15.22 -21.80 19.95 -9.03 -27.00 -6.13 179.00 70.91 180.00 4.62 -17.40 -11.15 4.93 16.10 2.15 -7.27 1.29 -0.02 19.49 5.33 -24.91 74.47 -80.41 85.48 -46.91 8.15 29.20 8.73 1.29 -0.02 -25.47 2.90 33.19 -101.03 -79.71 -111.66 35.03 5.75 -56.09 -1.68 16.12 0.35 11.90 -10.66 -2.98 
4.7090 21.1228 42.4414 -2.28 5.21 -7.47 20.04 -13.25 1.53 -179.00 73.33 180.00 14.56 -21.35 19.86 -9.03 -26.77 -5.10 179.00 69.79 180.00 5.47 -18.73 -10.42 5.18 14.63 2.42 -7.28 0.88 -0.01 19.50 5.67 -24.94 72.12 -80.37 83.17 -47.06 8.06 29.21 8.72 0.88 -0.01 -25.48 3.69 32.62 -100.89 -79.72 -111.52 35.55 5.65 -55.88 -1.83 16.25 0.38 11.79 -10.18 -3.08 
4.6098 20.6967 41.9295 -2.20 5.07 -6.59 20.14 -12.49 0.20 -179.00 71.65 180.00 14.15 -20.45 19.76 -8.56 -26.06 -3.45 179.00 68.26 180.00 6.57 -18.22 -10.31 6.06 13.07 2.89 -7.44 0.72 -0.01 19.50 5.67 -24.93 70.21 -80.33 81.29 -47.63 7.61 29.26 8.56 0.72 -0.01 -25.49 4.48 31.93 -100.61 -79.74 -111.24 35.40 5.48 -55.28 -2.01 16.35 0.42 11.21 -9.96 -3.17 
4.5107 20.1635 41.4177 -2.04 4.91 -6.16 20.08 -11.90 -0.78 -179.00 70.13 180.00 13.92 -19.15 19.63 -8.38 -25.28 -1.90 179.00 67.00 180.00 8.07 -15.91 -10.12 6.62 11.60 2.94 -7.76 0.32 -0.00 19.50 5.67 -24.94 68.92 -80.29 80.02 -48.16 7.40 29.15 8.24 0.32 -0.00 -25.73 5.16 31.25 -100.52 -79.74 -111.16 35.35 5.24 -55.29 -2.14 16.56 0.45 10.97 -10.00 -3.12 
4.4116 19.5229 40.9058 -1.82 4.74 -6.04 19.87 -12.37 -1.69 -179.00 68.21 180.00 13.67 -18.02 20.54 -8.37 -24.33 -0.81 179.00 65.79 180.00 8.41 -16.28 -10.10 6.16 10.14 3.05 -7.92 -0.41 0.00 19.50 5.90 -24.95 66.94 -80.23 78.06 -48.71 7.11 28.89 8.08 -0.41 0.00 -26.82 5.70 30.87 -100.31 -79.76 -110.96 35.57 4.93 -55.10 -2.12 16.94 0.44 11.60 -9.71 -4.69 
4.3126 18.7763 40.3939 -1.78 3.92 -8.27 19.59 -13.76 -2.74 -179.00 66.42 180.00 13.57 -17.10 21.18 -8.37 -23.39 -0.44 179.00 64.70 180.00 9.04 -13.73 -9.97 5.22 9.11 4.18 -7.51 -0.81 0.01 19.28 5.90 -24.93 66.77 -80.22 77.90 -48.68 7.26 28.48 8.49 -0.81 0.01 -26.83 5.92 30.92 -101.24 -79.69 -111.87 35.70 4.72 -55.14 -2.08 17.21 0.44 12.43 -10.69 -9.10 
2.6074 18.6931 39.9573 -4.78 -0.91 -24.80 18.90 -16.70 -5.03 -179.00 63.99 180.00 13.19 -15.71 21.66 -8.37 -22.60 -0.26 179.00 63.41 180.00 9.61 -14.61 -9.22 3.79 8.43 4.45 -6.87 -0.80 0.02 19.28 5.90 -24.93 66.34 -80.21 77.47 -48.29 7.40 27.61 9.13 -0.80 0.02 -26.62 6.94 30.26 -102.24 -79.62 -112.85 36.09 3.86 -54.77 -2.48 17.46 0.52 12.64 -9.96 -10.44 
2.2039 17.7888 40.3699 -3.71 -0.60 -22.88 17.26 -19.88 -7.93 -179.00 62.19 180.00 13.09 -15.55 24.06 -8.38 -21.90 -0.11 179.00 62.37 180.00 10.72 -9.29 -7.06 2.53 8.43 4.50 -6.71 -0.56 0.01 19.50 5.10 -24.90 67.22 -80.24 78.34 -48.39 7.61 27.05 9.29 -0.56 0.01 -25.79 8.43 28.77 -105.90 -79.31 -116.45 35.81 2.74 -54.08 -2.96 17.90 0.62 13.29 -7.25 -11.15 
2.8125 17.2850 40.4681 -2.10 0.06 -19.95 17.58 -25.30 -8.38 -179.00 59.74 180.00 13.55 -12.33 23.07 -9.34 -22.30 0.49 179.00 61.18 180.00 11.47 -9.37 -5.11 0.86 9.45 4.44 -7.28 -1.21 0.02 19.60 5.10 -24.91 68.76 -80.29 79.85 -48.53 7.88 26.67 8.72 -1.21 0.02 -25.71 9.89 26.91 -106.51 -79.25 -117.05 36.08 1.90 -54.20 -3.35 18.99 0.70 13.61 -1.99 -10.87 
2.8724 16.1949 40.8202 -0.60 0.27 -17.53 17.25 -26.97 -7.99 -179.00 58.09 180.00 12.44 -12.13 25.21 -10.48 -21.76 0.60 179.00 59.92 180.00 11.77 -3.08 -3.54 0.15 11.60 5.73 -8.33 -0.47 -0.00 19.93 5.10 -24.94 68.78 -80.29 79.87 -48.89 7.88 26.71 7.67 -0.47 -0.00 -24.59 8.89 26.57 -107.34 -79.17 -117.86 35.97 1.62 -54.21 -3.37 19.66 0.71 12.83 4.69 -7.85 
3.1310 16.4706 40.1588 0.75 0.41 -17.22 17.56 -31.21 -7.14 -179.00 57.12 180.00 13.02 -10.73 26.64 -13.65 -25.33 -1.47 179.00 59.68 180.00 8.68 2.99 -0.77 0.96 14.76 5.81 -9.61 0.98 0.03 19.38 4.87 -24.88 73.33 -80.39 84.36 -50.49 7.80 26.86 6.39 0.98 0.03 -24.90 7.86 26.46 -116.00 -78.10 -126.35 35.81 1.61 -53.86 -3.54 20.35 0.74 10.47 8.44 -5.19 
4.2249 15.7921 40.3182 1.88 1.89 -12.41 18.22 -31.48 -7.23 -179.00 56.33 180.00 13.11 -10.91 27.77 -15.77 -25.06 -2.32 179.00 59.12 180.00 10.15 4.35 -2.01 4.04 19.41 7.57 -10.10 2.83 0.10 18.83 3.49 -24.54 78.06 -80.44 89.02 -50.93 7.75 27.05 5.90 2.83 0.10 -25.97 6.50 26.84 -117.76 -77.82 -128.07 35.13 1.47 -53.64 -3.26 20.14 0.68 9.61 10.68 -4.81 
3.9309 15.9878 40.1295 1.75 1.98 -13.03 19.08 -33.04 -6.22 -179.00 56.25 180.00 14.22 -12.35 30.00 -15.24 -26.46 -2.56 179.00 60.28 180.00 9.45 10.69 -0.87 3.80 22.31 7.71 -9.69 3.54 0.10 18.83 2.82 -24.73 75.71 -80.43 86.71 -50.40 6.70 26.79 6.31 3.54 0.10 -26.95 6.92 26.80 -122.42 -76.96 -132.63 34.77 1.32 -53.72 -2.79 20.57 0.59 10.69 12.01 -4.83 
4.2891 16.1719 40.5019 2.20 2.85 -12.26 18.91 -33.54 -6.16 -179.00 56.57 180.00 17.49 -12.72 33.87 -16.09 -25.80 -2.72 179.00 61.30 180.00 8.55 8.51 0.74 5.66 22.77 8.13 -8.40 3.54 0.02 19.27 3.73 -24.80 74.49 -80.41 85.50 -50.14 6.55 26.76 7.60 3.54 0.02 -25.95 6.04 26.53 -120.07 -77.42 -130.33 35.64 0.84 -54.12 -2.32 20.70 0.49 11.03 13.25 -4.86 
4.2347 15.7684 40.8203 2.97 4.84 -11.29 18.62 -34.62 -6.00 -179.00 56.83 180.00 20.85 -14.06 39.17 -16.23 -26.56 -3.06 179.00 62.20 180.00 7.11 13.80 4.49 7.37 21.08 8.04 -7.11 2.98 -0.05 19.05 3.96 -24.80 74.55 -80.41 85.56 -48.76 6.70 26.64 8.89 2.98 -0.05 -25.73 5.49 26.41 -119.00 -77.61 -129.29 36.55 1.02 -53.78 -1.93 20.70 0.41 11.85 14.02 -5.48 
4.5939 15.6413 41.3323 3.83 7.87 -9.41 19.94 -33.96 -5.39 -179.00 58.13 180.00 22.70 -15.88 43.48 -15.90 -26.88 -3.01 179.00 62.91 180.00 6.17 10.80 6.76 7.38 19.86 8.04 -6.79 2.98 -0.06 19.27 3.96 -24.82 72.71 -80.38 83.75 -48.23 6.51 26.57 9.21 2.98 -0.06 -25.73 5.72 26.45 -119.00 -77.61 -129.28 37.06 1.17 -53.66 -1.09 20.52 0.23 13.77 12.44 -7.52 
4.5028 15.6620 41.8338 4.55 9.89 -9.25 20.33 -32.55 -5.63 -179.00 60.10 180.00 24.42 -16.62 46.10 -15.45 -26.98 -2.84 179.00 64.01 180.00 5.95 9.54 7.77 7.38 20.08 7.88 -6.63 2.82 -0.07 19.27 3.96 -24.81 71.51 -80.36 82.57 -48.52 6.36 26.60 9.37 2.82 -0.07 -25.74 6.17 26.52 -119.00 -77.61 -129.29 36.43 1.20 -53.59 -1.21 20.40 0.26 13.27 11.63 -7.69 
3.4973 15.6643 42.1082 4.95 9.71 -12.46 20.52 -30.73 -6.15 -179.00 61.50 180.00 24.93 -16.73 46.49 -14.82 -27.02 -2.55 179.00 64.28 180.00 5.84 10.35 7.77 6.52 20.08 7.80 -6.47 2.82 -0.08 19.27 3.96 -24.81 71.53 -80.36 82.58 -48.51 6.36 26.60 9.53 2.82 -0.08 -25.74 6.39 26.56 -119.07 -77.60 -129.35 36.45 1.39 -53.59 -1.28 20.34 0.27 12.99 11.56 -7.61 
